<?xml version="1.0" encoding="UTF-8"?>
<svg id="Layer_2" data-name="Layer 2" xmlns="http://www.w3.org/2000/svg" viewBox="0 0 140.16 111.86">
  <defs>
    <style>
      .cls-1 {
        fill: #414042;
      }

      .cls-1, .cls-2 {
        fill-rule: evenodd;
      }

      .cls-1, .cls-2, .cls-3, .cls-4 {
        stroke-width: 0px;
      }

      .cls-2, .cls-3 {
        fill: #a5cd39;
      }

      .cls-4 {
        fill: #fff;
      }
    </style>
  </defs>
  <g id="OBJECTS">
    <g>
      <path class="cls-1" d="M23.89,28.85c-.17-.18-8.4-7.91-12.71-11.96,1.13-2.16.81-4.93-1-6.86-2.27-2.43-6.01-2.62-8.37-.42-2.36,2.2-2.43,5.95-.16,8.38,1.82,1.95,4.61,2.46,6.85,1.43l11.34,12.97,4.04-3.54Z"/>
      <path class="cls-1" d="M116.28,22.47c.17-.18,8.4-7.91,12.71-11.96-1.13-2.16-.81-4.93,1-6.86,2.27-2.43,6.01-2.62,8.37-.42,2.36,2.2,2.43,5.95.16,8.38-1.82,1.95-4.61,2.46-6.85,1.43l-11.34,12.97-4.04-3.54Z"/>
      <rect class="cls-3" x="12.74" y="26.85" width="22.25" height="9.31" rx="3.62" ry="3.62" transform="translate(-10.57 50.91) rotate(-82.26)"/>
      <path class="cls-2" d="M73.06.12c41.15-1.62,48.3,13.34,44.25,73.77-29.87,2.26-59.74,2.51-89.61,0C21.21,21.71,15.8,1.73,73.06.12Z"/>
      <ellipse class="cls-4" cx="50.64" cy="50.65" rx="20.34" ry="19.72"/>
      <ellipse class="cls-4" cx="93.42" cy="49.13" rx="20.34" ry="19.72"/>
      <path class="cls-1" d="M94.34,55.66c4.31,0,7.83-3.41,7.83-7.59s-3.52-7.59-7.83-7.59-7.83,3.41-7.83,7.59,3.52,7.59,7.83,7.59Z"/>
      <path class="cls-1" d="M50.55,56.45c4.38,0,7.96-3.47,7.96-7.72s-3.57-7.72-7.96-7.72-7.96,3.47-7.96,7.72,3.58,7.72,7.96,7.72Z"/>
      <path class="cls-3" d="M115.26,14h2.08c2,0,3.62,1.62,3.62,3.62v15.01c0,2-1.62,3.62-3.62,3.62h-2.08c-2,0-3.62-1.62-3.62-3.62v-15.01c0-2,1.62-3.62,3.62-3.62Z" transform="translate(-2.32 15.88) rotate(-7.73)"/>
      <path class="cls-2" d="M122.74,55.73c.06-.83-.57-1.56-1.4-1.62l-1.51-.11-1.41,20.85c-30.62,2.97-61.79,3.16-91.95.68l-2.36-22.39-1.5.16c-.83.09-1.43.84-1.34,1.67l2.13,20.31s-.05,0-.07,0c1.04,8.92,2.08,17.84,3.12,26.75,3.94,15.1,92.13,11.51,93.45-1.95.53-8.48,1.05-16.96,1.58-25.45l1.27-18.9Z"/>
    </g>
  </g>
</svg>